<?xml version="1.0" encoding="utf-8"?>
<!-- Generator: Adobe Illustrator 27.0.0, SVG Export Plug-In . SVG Version: 6.00 Build 0)  -->
<svg version="1.1" xmlns="http://www.w3.org/2000/svg" xmlns:xlink="http://www.w3.org/1999/xlink" x="0px" y="0px"
	 viewBox="0 0 247.7 209" style="enable-background:new 0 0 247.7 209;" xml:space="preserve">
<style type="text/css">
	.st0{display:none;}
	.st1{display:inline;}
	.st2{fill:#5463A6;}
	.st3{fill:#D54D48;}
	.st4{fill:#85B445;}
	.st5{fill:#222121;}
</style>
<g id="Ebene_3" class="st0">
</g>
<g id="Ebene_2" class="st0">
	<g class="st1">
		<path d="M138.7,250c2.4,0,4.1,0.2,5.3,0.5c1.2,0.3,2.3,0.9,3.2,1.9c1.6,1.6,2.4,3.6,2.4,6c0,2.6-0.9,4.6-2.6,6.1
			c-1.7,1.5-4.1,2.3-7,2.3h-2v11.4h-4.2V250H138.7 M138.1,262.8h1.6c3.9,0,5.9-1.5,5.9-4.5c0-2.9-2-4.4-6-4.4h-1.4V262.8 M138.7,248
			h-4.8h-2v2v28.2v2h2h4.2h2v-2v-9.4c3.4,0,6.2-0.9,8.3-2.8c2.2-1.9,3.3-4.5,3.3-7.6c0-3-1-5.4-3-7.4c-1.2-1.1-2.5-1.9-4.1-2.4
			C143.1,248.2,141.2,248,138.7,248L138.7,248z M140.1,260.8v-4.8c3.4,0.1,3.4,1.6,3.4,2.3C143.5,259.2,143.5,260.7,140.1,260.8
			L140.1,260.8z"/>
		<path d="M162.8,259.9c2.7,0,4.9,0.9,6.7,2.7c1.8,1.8,2.7,4,2.7,6.7c0,2.7-0.9,4.9-2.8,6.7c-1.8,1.8-4.1,2.7-6.8,2.7
			c-2.7,0-4.9-0.9-6.7-2.7c-1.8-1.8-2.7-4.1-2.7-6.8c0-2.6,0.9-4.7,2.8-6.5C157.9,260.8,160.1,259.9,162.8,259.9 M162.8,275
			c1.6,0,2.9-0.5,3.8-1.5c1-1,1.4-2.4,1.4-4.1c0-1.7-0.5-3.1-1.4-4.1c-1-1-2.3-1.6-3.8-1.6c-1.6,0-2.8,0.5-3.8,1.6
			c-1,1-1.5,2.4-1.5,4c0,1.8,0.5,3.2,1.4,4.2C159.9,274.5,161.2,275,162.8,275 M162.8,257.9c-3.2,0-5.9,1.1-8.1,3.3
			c-2.2,2.2-3.4,4.9-3.4,8c0,3.3,1.1,6,3.3,8.2c2.2,2.2,4.9,3.3,8.1,3.3c3.2,0,6-1.1,8.2-3.2c2.2-2.2,3.4-4.9,3.4-8.1
			c0-3.2-1.1-5.9-3.3-8.1C168.7,259,166,257.9,162.8,257.9L162.8,257.9z M162.8,273c-1,0-1.8-0.3-2.4-0.9c-0.6-0.6-0.9-1.6-0.9-2.9
			c0-1.1,0.3-2,0.9-2.7c0.6-0.6,1.3-0.9,2.3-0.9c1,0,1.8,0.3,2.4,0.9c0.6,0.7,0.9,1.6,0.9,2.8c0,1.2-0.3,2.1-0.9,2.8
			C164.6,272.7,163.8,273,162.8,273L162.8,273z"/>
		<polygon points="212.1,248 212.1,252.3 205.2,252.3 205.2,278.1 200.6,278.1 200.6,252.3 181.6,252.3 181.6,259.5 193.3,259.5 
			193.3,263.8 181.6,263.8 181.6,273.9 193.7,273.9 193.7,278.1 177,278.1 177,248 		"/>
	</g>
</g>
<g id="Ebene_4">
	<g>
		<g>
			<path class="st2" d="M49.8,162.1l-25.5,25.5h-4.6v-4.6l25.5-25.5c1.3-1.3,3.4-1.3,4.6,0h0C51.1,158.7,51.1,160.8,49.8,162.1z"/>
			<path class="st3" d="M61.7,190.8c0,1.8-1.5,3.3-3.3,3.3H19.7v-6.5h38.7C60.2,187.6,61.7,189,61.7,190.8z"/>
			<path class="st4" d="M19.7,148.8v45.3h-6.5v-45.3c0-1.8,1.5-3.3,3.3-3.3C18.2,145.5,19.7,147,19.7,148.8z"/>
		</g>
		<path class="st5" d="M105,117.5c12.6,0,21.4,10.2,21.4,22.6c0,16-11.6,24.3-21.6,24.3c-13.3,0-21.8-11.1-21.8-22.6
			C83.1,125.1,96.1,117.5,105,117.5z M103.7,119.7c-7.4,0-12.5,8-12.5,18.8c0,14.2,6.4,23.5,15.1,23.5c6.7,0,12.1-5,12.1-20
			C118.3,130.6,113.3,119.7,103.7,119.7z"/>
		<path class="st5" d="M233.9,105.3h-1.4c-2.1,2-3.7,2.4-6.5,2.4h-46.8h-3.9h-23.5h-20.2v1.7c7.5,0.9,8.1,1.7,8.1,11.3v43.1
			c0,9.4-0.7,10-9.9,11.2v1.7h51.8c0.6-2.6,2.5-12.9,3.1-16.7l-1.6-0.3c-1.8,4.3-3.5,8-5.4,10.1c-2.7,2.9-4.1,3.7-10.4,3.7h-6.3
			c-6.6-0.1-8.2-1.5-8.2-8.9v-22.6h10.3c8.4,0,8.7,2.7,10.2,8.9h1.7v-21h-1.7c-1.5,6.6-1.8,8.9-10.2,8.9H153v-25.4
			c0-2.1,0.4-2.6,2.7-2.6h19.6h4.2h6.7h11.7v52.8c0,9.3-1.2,9.7-8.9,11.4v1.7h31.4v-1.7c-8.3-1.4-9.3-2.2-9.3-11.4v-52.8h11.7
			c3,0.2,4.1,0.9,5.5,2.4c2.7,3,3.4,6,4.7,10.1l1.7-0.2C234,117.7,233.9,110.1,233.9,105.3z"/>
		<path class="st5" d="M90.8,176.6H52.2v-1.7l3.7-0.5c2.7-0.4,5.3-1.8,6.8-4.1c1.5-2.3,2.6-5.3,2.6-9c0-13.4-22.1-32.8-24.6-51.5
			c-1.3-9.7,3.9-24,6.2-29.6c1.2-2.8,2.3-5.7,3.2-8.6c10.7-34.4-2.1-61-2.1-61C63,17,73.5,25.3,80.8,33.1
			c12.5,13.3,19.5,31.5,15.8,49.8c-1.5,7.7-4.2,13-10.4,21.7c-18.5,26-16.8,35-16.8,35c-18.1-21.7,7-48.2,7.7-66.2
			c0.6-16.5-5.4-23.7-5.4-23.7c3.8,31.8-15.7,48.3-16.7,70.6c-0.2,4.4,1,8.9,2.7,13c2.1,5.2,5.1,10,8.8,14.3L90.8,176.6"/>
	</g>
</g>
</svg>
