<?xml version="1.0" encoding="UTF-8" standalone="no"?>
<!-- Generator: Adobe Illustrator 27.0.0, SVG Export Plug-In . SVG Version: 6.00 Build 0)  -->

<svg
   version="1.1"
   x="0px"
   y="0px"
   viewBox="0 0 1688 344"
   xml:space="preserve"
   id="svg29"
   sodipodi:docname="PoET_white_scaled.svg"
   width="1688"
   height="344"
   inkscape:version="1.2.1 (1:1.2.1+202210291244+9c6d41e410)"
   xmlns:inkscape="http://www.inkscape.org/namespaces/inkscape"
   xmlns:sodipodi="http://sodipodi.sourceforge.net/DTD/sodipodi-0.dtd"
   xmlns="http://www.w3.org/2000/svg"
   xmlns:svg="http://www.w3.org/2000/svg"><defs
   id="defs33" /><sodipodi:namedview
   id="namedview31"
   pagecolor="#ffffff"
   bordercolor="#666666"
   borderopacity="1.0"
   inkscape:showpageshadow="2"
   inkscape:pageopacity="0.0"
   inkscape:pagecheckerboard="0"
   inkscape:deskcolor="#d1d1d1"
   showgrid="false"
   inkscape:zoom="0.84751315"
   inkscape:cx="669.60613"
   inkscape:cy="69.025477"
   inkscape:window-width="2488"
   inkscape:window-height="1376"
   inkscape:window-x="1920"
   inkscape:window-y="27"
   inkscape:window-maximized="1"
   inkscape:current-layer="svg29" />
<style
   type="text/css"
   id="style2">
	.st0{display:none;}
	.st1{display:inline;}
	.st2{fill:#5463A6;}
	.st3{fill:#D54D48;}
	.st4{fill:#85B445;}
	.st5{fill:#FFFFFF;}
</style>
<g
   id="Ebene_3"
   class="st0">
</g>
<g
   id="Ebene_2"
   class="st0">
	<g
   class="st1"
   id="g11">
		<path
   d="m 138.7,250 c 2.4,0 4.1,0.2 5.3,0.5 1.2,0.3 2.3,0.9 3.2,1.9 1.6,1.6 2.4,3.6 2.4,6 0,2.6 -0.9,4.6 -2.6,6.1 -1.7,1.5 -4.1,2.3 -7,2.3 h -2 v 11.4 h -4.2 V 250 h 4.9 m -0.6,12.8 h 1.6 c 3.9,0 5.9,-1.5 5.9,-4.5 0,-2.9 -2,-4.4 -6,-4.4 h -1.4 v 8.9 m 0.5,-14.8 h -4.8 -2 v 2 28.2 2 h 2 4.2 2 v -2 -9.4 c 3.4,0 6.2,-0.9 8.3,-2.8 2.2,-1.9 3.3,-4.5 3.3,-7.6 0,-3 -1,-5.4 -3,-7.4 -1.2,-1.1 -2.5,-1.9 -4.1,-2.4 -1.5,-0.4 -3.4,-0.6 -5.9,-0.6 z m 1.4,12.8 V 256 c 3.4,0.1 3.4,1.6 3.4,2.3 0,0.9 0,2.4 -3.4,2.5 z"
   id="path5" />
		<path
   d="m 162.8,259.9 c 2.7,0 4.9,0.9 6.7,2.7 1.8,1.8 2.7,4 2.7,6.7 0,2.7 -0.9,4.9 -2.8,6.7 -1.8,1.8 -4.1,2.7 -6.8,2.7 -2.7,0 -4.9,-0.9 -6.7,-2.7 -1.8,-1.8 -2.7,-4.1 -2.7,-6.8 0,-2.6 0.9,-4.7 2.8,-6.5 1.9,-1.9 4.1,-2.8 6.8,-2.8 m 0,15.1 c 1.6,0 2.9,-0.5 3.8,-1.5 1,-1 1.4,-2.4 1.4,-4.1 0,-1.7 -0.5,-3.1 -1.4,-4.1 -1,-1 -2.3,-1.6 -3.8,-1.6 -1.6,0 -2.8,0.5 -3.8,1.6 -1,1 -1.5,2.4 -1.5,4 0,1.8 0.5,3.2 1.4,4.2 1,1 2.3,1.5 3.9,1.5 m 0,-17.1 c -3.2,0 -5.9,1.1 -8.1,3.3 -2.2,2.2 -3.4,4.9 -3.4,8 0,3.3 1.1,6 3.3,8.2 2.2,2.2 4.9,3.3 8.1,3.3 3.2,0 6,-1.1 8.2,-3.2 2.2,-2.2 3.4,-4.9 3.4,-8.1 0,-3.2 -1.1,-5.9 -3.3,-8.1 -2.3,-2.3 -5,-3.4 -8.2,-3.4 z m 0,15.1 c -1,0 -1.8,-0.3 -2.4,-0.9 -0.6,-0.6 -0.9,-1.6 -0.9,-2.9 0,-1.1 0.3,-2 0.9,-2.7 0.6,-0.6 1.3,-0.9 2.3,-0.9 1,0 1.8,0.3 2.4,0.9 0.6,0.7 0.9,1.6 0.9,2.8 0,1.2 -0.3,2.1 -0.9,2.8 -0.5,0.6 -1.3,0.9 -2.3,0.9 z"
   id="path7" />
		<polygon
   points="181.6,252.3 181.6,259.5 193.3,259.5 193.3,263.8 181.6,263.8 181.6,273.9 193.7,273.9 193.7,278.1 177,278.1 177,248 212.1,248 212.1,252.3 205.2,252.3 205.2,278.1 200.6,278.1 200.6,252.3 "
   id="polygon9" />
	</g>
</g>
<g
   id="Ebene_4"
   transform="matrix(1.7200647,0,0,1.8746594,630.79798,-19.87139)">
	<g
   id="g20">
		<path
   class="st2"
   d="M 49.8,162.1 24.3,187.6 H 19.7 V 183 l 25.5,-25.5 c 1.3,-1.3 3.4,-1.3 4.6,0 v 0 c 1.3,1.2 1.3,3.3 0,4.6 z"
   id="path14" />
		<path
   class="st3"
   d="m 61.7,190.8 c 0,1.8 -1.5,3.3 -3.3,3.3 H 19.7 v -6.5 h 38.7 c 1.8,0 3.3,1.4 3.3,3.2 z"
   id="path16" />
		<path
   class="st4"
   d="m 19.7,148.8 v 45.3 h -6.5 v -45.3 c 0,-1.8 1.5,-3.3 3.3,-3.3 1.7,0 3.2,1.5 3.2,3.3 z"
   id="path18" />
	</g>
	<path
   class="st5"
   d="m 105,117.5 c 12.6,0 21.4,10.2 21.4,22.6 0,16 -11.6,24.3 -21.6,24.3 -13.3,0 -21.8,-11.1 -21.8,-22.6 0.1,-16.7 13.1,-24.3 22,-24.3 z m -1.3,2.2 c -7.4,0 -12.5,8 -12.5,18.8 0,14.2 6.4,23.5 15.1,23.5 6.7,0 12.1,-5 12.1,-20 -0.1,-11.4 -5.1,-22.3 -14.7,-22.3 z"
   id="path22" />
	<path
   class="st5"
   d="m 233.9,105.3 h -1.4 c -2.1,2 -3.7,2.4 -6.5,2.4 h -46.8 -3.9 -23.5 -20.2 v 1.7 c 7.5,0.9 8.1,1.7 8.1,11.3 v 43.1 c 0,9.4 -0.7,10 -9.9,11.2 v 1.7 h 51.8 c 0.6,-2.6 2.5,-12.9 3.1,-16.7 l -1.6,-0.3 c -1.8,4.3 -3.5,8 -5.4,10.1 -2.7,2.9 -4.1,3.7 -10.4,3.7 H 161 c -6.6,-0.1 -8.2,-1.5 -8.2,-8.9 V 142 h 10.3 c 8.4,0 8.7,2.7 10.2,8.9 h 1.7 v -21 h -1.7 c -1.5,6.6 -1.8,8.9 -10.2,8.9 H 153 v -25.4 c 0,-2.1 0.4,-2.6 2.7,-2.6 h 19.6 4.2 6.7 11.7 v 52.8 c 0,9.3 -1.2,9.7 -8.9,11.4 v 1.7 h 31.4 V 175 c -8.3,-1.4 -9.3,-2.2 -9.3,-11.4 v -52.8 h 11.7 c 3,0.2 4.1,0.9 5.5,2.4 2.7,3 3.4,6 4.7,10.1 l 1.7,-0.2 c -0.7,-5.4 -0.8,-13 -0.8,-17.8 z"
   id="path24" />
	<path
   class="st5"
   d="M 90.8,176.6 H 52.2 v -1.7 l 3.7,-0.5 c 2.7,-0.4 5.3,-1.8 6.8,-4.1 1.5,-2.3 2.6,-5.3 2.6,-9 0,-13.4 -22.1,-32.8 -24.6,-51.5 -1.3,-9.7 3.9,-24 6.2,-29.6 1.2,-2.8 2.3,-5.7 3.2,-8.6 10.7,-34.4 -2.1,-61 -2.1,-61 15,6.4 25.5,14.7 32.8,22.5 12.5,13.3 19.5,31.5 15.8,49.8 -1.5,7.7 -4.2,13 -10.4,21.7 -18.5,26 -16.8,35 -16.8,35 -18.1,-21.7 7,-48.2 7.7,-66.2 C 77.7,56.9 71.7,49.7 71.7,49.7 75.5,81.5 56,98 55,120.3 c -0.2,4.4 1,8.9 2.7,13 2.1,5.2 5.1,10 8.8,14.3 l 24.3,29"
   id="path26" />
</g>
</svg>
